<?xml version="1.0" encoding="UTF-8"?>
<svg width="752pt" height="752pt" version="1.1" viewBox="0 0 752 752" xmlns="http://www.w3.org/2000/svg">
 <g>
  <path d="m535.84 316.8h-100.64v-19.789c-0.007813-3.1445 1.2383-6.1602 3.4688-8.375l16.777-16.777c10.199 4.8867 22.113 4.6445 32.105-0.65234 9.9922-5.2969 16.875-15.023 18.555-26.207 1.6797-11.184-2.0508-22.5-10.047-30.5-7.9961-7.9961-19.312-11.723-30.5-10.047-11.184 1.6797-20.91 8.5664-26.207 18.559-5.2969 9.9922-5.5391 21.906-0.65234 32.105l-16.773 16.773c-6.6875 6.6484-10.434 15.691-10.406 25.121v19.789h-23.68v-79.031c10.621-3.7539 18.828-12.32 22.125-23.09 3.2969-10.77 1.2891-22.465-5.4062-31.52-6.6992-9.0547-17.293-14.395-28.559-14.395-11.262 0-21.855 5.3398-28.555 14.395-6.6953 9.0547-8.7031 20.75-5.4062 31.52 3.2969 10.77 11.504 19.336 22.121 23.09v79.031h-23.676v-19.789c0.023437-9.4258-3.7227-18.473-10.406-25.117l-16.773-16.777c4.8867-10.199 4.6445-22.113-0.65625-32.105-5.2969-9.9922-15.02-16.879-26.207-18.559-11.184-1.6758-22.5 2.0508-30.496 10.047-8 8-11.727 19.316-10.047 30.5 1.6758 11.184 8.5625 20.91 18.555 26.207 9.9922 5.2969 21.906 5.5391 32.105 0.65234l16.773 16.773v0.003906c2.2305 2.2148 3.4805 5.2305 3.4727 8.375v19.789h-100.64c-9.418 0.007812-18.445 3.7539-25.105 10.414-6.6562 6.6602-10.402 15.688-10.414 25.105v47.359-0.003906c0.011718 9.418 3.7578 18.445 10.414 25.105 6.6602 6.6562 15.688 10.402 25.105 10.414h100.64v19.789c0.007812 3.1406-1.2422 6.1602-3.4688 8.375l-16.777 16.773c-10.199-4.8867-22.113-4.6445-32.105 0.65234-9.9922 5.3008-16.879 15.023-18.555 26.207-1.6797 11.188 2.0469 22.504 10.047 30.5 7.9961 8 19.312 11.727 30.496 10.047 11.188-1.6758 20.91-8.5625 26.207-18.555 5.3008-9.9922 5.543-21.906 0.65625-32.105l16.773-16.773c6.6836-6.6484 10.434-15.695 10.406-25.121v-19.789h23.68l-0.003906 79.027c-10.617 3.7539-18.824 12.324-22.121 23.094-3.2969 10.77-1.2891 22.461 5.4062 31.516 6.6992 9.0547 17.293 14.398 28.555 14.398 11.266 0 21.859-5.3438 28.559-14.398 6.6953-9.0547 8.7031-20.746 5.4062-31.516-3.2969-10.77-11.504-19.34-22.125-23.094v-79.027h23.68v19.789c-0.027343 9.4258 3.7227 18.473 10.406 25.117l16.773 16.777c-4.8867 10.199-4.6445 22.113 0.65234 32.105 5.2969 9.9922 15.023 16.879 26.207 18.555 11.188 1.6797 22.504-2.0469 30.5-10.047 7.9961-7.9961 11.727-19.312 10.047-30.5-1.6797-11.184-8.5625-20.906-18.555-26.207-9.9922-5.2969-21.906-5.5391-32.105-0.65234l-16.773-16.773h-0.003906c-2.2266-2.2148-3.4766-5.2305-3.4688-8.375v-19.789h100.64c9.4141-0.011719 18.445-3.7578 25.102-10.414 6.6602-6.6602 10.406-15.688 10.418-25.105v-47.355c-0.011719-9.418-3.7578-18.445-10.418-25.105-6.6562-6.6602-15.688-10.406-25.102-10.414zm-65.117-88.797c4.7891 0 9.1055 2.8828 10.938 7.3086 1.832 4.4219 0.82031 9.5156-2.5664 12.902-3.3867 3.3867-8.4805 4.3984-12.902 2.5664-4.4258-1.832-7.3086-6.1484-7.3086-10.938 0.007813-6.5352 5.3047-11.832 11.84-11.84zm-94.719-35.52c4.7891 0 9.1055 2.8867 10.941 7.3086 1.832 4.4258 0.81641 9.5156-2.5664 12.902-3.3867 3.3867-8.4805 4.3984-12.906 2.5664-4.4219-1.832-7.3086-6.1484-7.3086-10.938 0.011719-6.5352 5.3047-11.832 11.84-11.84zm-94.715 59.199c-4.7891 0-9.1055-2.8867-10.938-7.3086-1.832-4.4258-0.82031-9.5195 2.5664-12.902 3.3867-3.3867 8.4766-4.4023 12.902-2.5664 4.4219 1.832 7.3086 6.1484 7.3086 10.938-0.007812 6.5352-5.3047 11.828-11.84 11.84zm0 272.31c-4.7891 0-9.1055-2.8867-10.938-7.3086-1.832-4.4258-0.82031-9.5156 2.5664-12.902 3.3867-3.3867 8.4766-4.3984 12.902-2.5664 4.4219 1.832 7.3086 6.1484 7.3086 10.938-0.007812 6.5352-5.3047 11.832-11.84 11.84zm94.715 35.52c-4.7891 0-9.1055-2.8867-10.938-7.3086-1.832-4.4258-0.82031-9.5195 2.5664-12.906 3.3867-3.3828 8.4805-4.3984 12.902-2.5664 4.4258 1.8359 7.3086 6.1523 7.3086 10.941-0.007813 6.5352-5.3047 11.828-11.84 11.84zm94.719-59.199c4.7891 0 9.1055 2.8828 10.938 7.3086s0.82031 9.5156-2.5664 12.902c-3.3867 3.3867-8.4805 4.3984-12.902 2.5664-4.4258-1.832-7.3086-6.1484-7.3086-10.938 0.007813-6.5352 5.3047-11.832 11.84-11.84zm76.957-100.64c-0.011719 6.5352-5.3047 11.832-11.84 11.84h-319.67c-6.5352-0.007812-11.832-5.3047-11.84-11.84v-47.355c0.007813-6.5352 5.3047-11.832 11.84-11.84h319.67c6.5352 0.007813 11.828 5.3047 11.84 11.84z"/>
  <path d="m524 376c0 6.5391-5.3008 11.84-11.84 11.84s-11.84-5.3008-11.84-11.84 5.3008-11.84 11.84-11.84 11.84 5.3008 11.84 11.84"/>
  <path d="m488.48 376c0 6.5391-5.3008 11.84-11.84 11.84-6.5391 0-11.84-5.3008-11.84-11.84s5.3008-11.84 11.84-11.84c6.5391 0 11.84 5.3008 11.84 11.84"/>
  <path d="m452.96 376c0 6.5391-5.3008 11.84-11.84 11.84-6.5391 0-11.84-5.3008-11.84-11.84s5.3008-11.84 11.84-11.84c6.5391 0 11.84 5.3008 11.84 11.84"/>
 </g>
</svg>
